<?xml version="1.0" encoding="UTF-8"?>
<!DOCTYPE svg PUBLIC "-//W3C//DTD SVG 1.1//EN" "http://www.w3.org/Graphics/SVG/1.1/DTD/svg11.dtd">
<!-- Creator: CorelDRAW -->
<svg xmlns="http://www.w3.org/2000/svg" xml:space="preserve" width="5.0883mm" height="5.0883mm" version="1.1" style="shape-rendering:geometricPrecision; text-rendering:geometricPrecision; image-rendering:optimizeQuality; fill-rule:evenodd; clip-rule:evenodd"
viewBox="0 0 1.37 1.37"
 xmlns:xlink="http://www.w3.org/1999/xlink"
 xmlns:xodm="http://www.corel.com/coreldraw/odm/2003">
 <defs>
  <style type="text/css">
   <![CDATA[
    .fil2 {fill:none}
    .fil1 {fill:#FEFEFE}
    .fil0 {fill:#373435}
   ]]>
  </style>
   <clipPath id="id0">
    <path d="M0.69 0c0.38,0 0.69,0.31 0.69,0.69 0,0.38 -0.31,0.69 -0.69,0.69 -0.38,0 -0.69,-0.31 -0.69,-0.69 0,-0.38 0.31,-0.69 0.69,-0.69z"/>
   </clipPath>
 </defs>
 <g id="Capa_x0020_1">
  <metadata id="CorelCorpID_0Corel-Layer"/>
  <path class="fil0" d="M0.69 0c0.38,0 0.69,0.31 0.69,0.69 0,0.38 -0.31,0.69 -0.69,0.69 -0.38,0 -0.69,-0.31 -0.69,-0.69 0,-0.38 0.31,-0.69 0.69,-0.69z"/>
  <g style="clip-path:url(#id0)">
   <g id="_2252411583952">
    <path id="_1" class="fil1" d="M0.08 1.03l0 0.24 0.61 0.21c-0.01,-0.01 -0.12,-0.23 -0.13,-0.25 -0,-0 -0.01,-0.01 -0.01,-0.01 -0.05,-0.06 -0.06,-0.13 -0.05,-0.22 0,-0.02 0.01,-0.05 0.02,-0.07 0.02,-0.05 0.05,-0.06 0.1,-0.09 0.02,-0.01 0.04,-0.02 0.06,-0.04 0.03,-0.02 0.06,-0.03 0.08,-0.06 0.01,-0.01 0.01,-0.02 0.02,-0.03 0.01,-0.02 0.01,-0.03 -0.01,-0.03 -0.01,0 -0.03,0 -0.04,0 -0.02,0 -0.06,0.02 -0.08,0 -0.01,-0.01 -0.02,-0.05 -0.01,-0.07 0.01,-0.02 0.02,-0.03 0.03,-0.06 0.01,-0.02 0.01,-0.06 -0.01,-0.07 -0.01,-0.01 -0.02,-0 -0.03,-0.01 -0.01,-0.01 -0.02,-0.01 -0.03,-0.02 -0.01,0.01 -0.02,0.03 -0.02,0.04 -0.01,0.02 -0.05,0.04 -0.07,0.05 -0.03,0.02 -0.04,0.01 -0.05,0.01 -0,0 -0,0.01 -0.01,0.01 -0,0 -0,0 -0.01,0.01 -0.01,0 -0.01,0.01 -0.02,0.01 -0.07,0.01 -0.09,0.04 -0.15,0.08 -0.01,0 -0.03,-0 -0.05,0 -0.02,0 -0.03,0.01 -0.03,0.03 0,0.04 0.02,0.05 0.02,0.09 0,0.01 0,0.04 0,0.05 -0,0.02 -0.05,0.08 -0.07,0.1l-0.07 0.1z"/>
    <path class="fil1" d="M0.8 0.56c0.04,-0 0.08,-0.03 0.1,-0.05 0.01,-0.01 0.03,-0.02 0.04,-0.03 0.01,-0.01 0.01,-0.01 0.03,-0 0.01,0.01 0.02,0.01 0.03,0.01 -0.01,-0.03 -0.04,-0.04 0.05,-0.07 0.01,-0 0.02,-0 0.03,-0 0.01,0 0.02,0.01 0.02,0.01l0.02 0.02c0,0 0.02,0.01 0.02,0.01 -0,-0.03 -0.01,-0.04 -0.01,-0.05 0.01,-0.01 0.02,-0.03 0.03,-0.04 -0.02,-0 -0.04,0.01 -0.06,0.01 -0.03,0.01 -0.07,-0.01 -0.16,0.01 -0,-0 -0.01,-0.01 -0.02,-0.02 -0.01,-0.01 -0.01,-0.01 -0.02,-0.02 -0.02,0.01 -0.02,0.05 -0.02,0.06 -0,0.01 -0.02,0.01 -0.02,0.02 -0.01,0.01 -0.01,0.01 -0.02,0.02 -0.02,0.02 -0.05,0.07 -0.05,0.11z"/>
   </g>
  </g>
  <path class="fil2" d="M0.69 0c0.38,0 0.69,0.31 0.69,0.69 0,0.38 -0.31,0.69 -0.69,0.69 -0.38,0 -0.69,-0.31 -0.69,-0.69 0,-0.38 0.31,-0.69 0.69,-0.69z"/>
 </g>
</svg>
